<svg xmlns="http://www.w3.org/2000/svg" xmlns:xlink="http://www.w3.org/1999/xlink" xmlns:lucid="lucid" width="1900" height="449.17"><g transform="translate(0 -50.833333333333314)" lucid:page-tab-id="0_0"><path d="M0 0h2000v500H0z" fill="#fff"/><g class="lucid-layer" lucid:layer-id="fhdRymCRV.x6" display="block"><path d="M20 76.83a6 6 0 0 1 6-6h694.67a6 6 0 0 1 6 6V474a6 6 0 0 1-6 6H26a6 6 0 0 1-6-6z" fill="#f7f4e4"/><path d="M680 76.83a6 6 0 0 1 6-6h741.33a6 6 0 0 1 6 6V474a6 6 0 0 1-6 6H686a6 6 0 0 1-6-6z" fill="#e3fae3"/><path d="M1360 76.83a6 6 0 0 1 6-6h508a6 6 0 0 1 6 6V474a6 6 0 0 1-6 6h-508a6 6 0 0 1-6-6z" fill="#edf5ff"/></g><g class="lucid-layer" lucid:layer-id="nhdRFi3n2DL7" display="block"><path d="M580 216.83a6 6 0 0 1 6-6h148a6 6 0 0 1 6 6v48a6 6 0 0 1-6 6H586a6 6 0 0 1-6-6z" stroke="#3a414a" fill="#fe7070"/><use xlink:href="#a" transform="matrix(1,0,0,1,585,215.83333333333331) translate(34.96913580246913 30.27777777777778)"/><path d="M60 231.42a6 6 0 0 1 6-6h348a6 6 0 0 1 6 6v88a6 6 0 0 1-6 6H66a6 6 0 0 1-6-6z" stroke="#3a414a" fill="#dedeff"/><use xlink:href="#b" transform="matrix(1,0,0,1,65,230.41666666666663) translate(0 23.40277777777778)"/><use xlink:href="#c" transform="matrix(1,0,0,1,65,230.41666666666663) translate(56.72839506172839 23.40277777777778)"/><use xlink:href="#d" transform="matrix(1,0,0,1,65,230.41666666666663) translate(106.11111111111111 23.40277777777778)"/><use xlink:href="#e" transform="matrix(1,0,0,1,65,230.41666666666663) translate(187.53086419753086 23.40277777777778)"/><use xlink:href="#f" transform="matrix(1,0,0,1,65,230.41666666666663) translate(277.34567901234567 23.40277777777778)"/><use xlink:href="#g" transform="matrix(1,0,0,1,65,230.41666666666663) translate(7.222222222222221 50.06944444444445)"/><use xlink:href="#h" transform="matrix(1,0,0,1,65,230.41666666666663) translate(22.22222222222222 50.06944444444445)"/><use xlink:href="#g" transform="matrix(1,0,0,1,65,230.41666666666663) translate(7.222222222222221 76.73611111111111)"/><use xlink:href="#i" transform="matrix(1,0,0,1,65,230.41666666666663) translate(22.22222222222222 76.73611111111111)"/><path d="M140 106a6 6 0 0 1 6-6h228a6 6 0 0 1 6 6v48a6 6 0 0 1-6 6H146a6 6 0 0 1-6-6z" stroke="#000" stroke-opacity="0" fill="#fff" fill-opacity="0"/><use xlink:href="#j" transform="matrix(1,0,0,1,145,105) translate(29.666666666666686 35.124999999999986)"/><path d="M920 106a6 6 0 0 1 6-6h228a6 6 0 0 1 6 6v48a6 6 0 0 1-6 6H926a6 6 0 0 1-6-6z" stroke="#000" stroke-opacity="0" fill="#fff" fill-opacity="0"/><use xlink:href="#k" transform="matrix(1,0,0,1,925,105) translate(-20.388888888888857 33)"/><path d="M1496.02 106a6 6 0 0 1 6-6h228a6 6 0 0 1 6 6v48a6 6 0 0 1-6 6h-228a6 6 0 0 1-6-6z" stroke="#000" stroke-opacity="0" fill="#fff" fill-opacity="0"/><use xlink:href="#l" transform="matrix(1,0,0,1,1501.0183999996189,105) translate(1.8333333333333712 35.124999999999986)"/><path d="M760 256.83a6 6 0 0 1 6-6h148a6 6 0 0 1 6 6v48a6 6 0 0 1-6 6H766a6 6 0 0 1-6-6z" stroke="#3a414a" fill="#dedeff"/><use xlink:href="#m" transform="matrix(1,0,0,1,765,255.83333333333331) translate(4.074074074074076 30.27777777777778)"/><path d="M940 256a6 6 0 0 1 6-6h148a6 6 0 0 1 6 6v48a6 6 0 0 1-6 6H946a6 6 0 0 1-6-6z" stroke="#3a414a" fill="#dedeff"/><use xlink:href="#n" transform="matrix(1,0,0,1,945,255) translate(30.617283950617285 30.27777777777778)"/><path d="M1160 216.83a6 6 0 0 1 6-6h148a6 6 0 0 1 6 6v48a6 6 0 0 1-6 6h-148a6 6 0 0 1-6-6z" stroke="#3a414a" fill="#dedeff"/><use xlink:href="#o" transform="matrix(1,0,0,1,1165,215.83333333333331) translate(60.833333333333336 30.27777777777778)"/><path d="M380 386a6 6 0 0 1 6-6h148a6 6 0 0 1 6 6v48a6 6 0 0 1-6 6H386a6 6 0 0 1-6-6z" stroke="#3a414a" fill="#ffdda6"/><use xlink:href="#p" transform="matrix(1,0,0,1,385,385) translate(20.154320987654323 30.27777777777778)"/><use xlink:href="#q" transform="matrix(1,0,0,1,385,385) translate(86.69753086419752 30.27777777777778)"/><path d="M517.75 199.75c0 10.9-8.84 19.75-19.75 19.75-10.9 0-19.75-8.84-19.75-19.75 0-10.9 8.84-19.75 19.75-19.75 10.9 0 19.75 8.84 19.75 19.75z" stroke="#3a414a" fill="#008a0e"/><path d="M498 219.5v49.3a20.7 20.7 0 0 0 3.2 11.07L538 338m-40-63.2L458 338m0-98.75h80" stroke="#3a414a" fill="none"/><path d="M458 186a6 6 0 0 1 6-6h68a6 6 0 0 1 6 6v168a6 6 0 0 1-6 6h-68a6 6 0 0 1-6-6z" fill="none"/><path d="M1396.02 215.17a6 6 0 0 1 6-6h148a6 6 0 0 1 6 6v51.33a6 6 0 0 1-6 6h-148a6 6 0 0 1-6-6z" stroke="#3a414a" fill="#fe7070"/><use xlink:href="#r" transform="matrix(1,0,0,1,1401.0183999996189,214.16666666666666) translate(43.580246913580254 31.27777777777778)"/><path d="M1656.02 166a6 6 0 0 1 6-6h148a6 6 0 0 1 6 6v51.33a6 6 0 0 1-6 6h-148a6 6 0 0 1-6-6z" stroke="#3a414a" fill="#dedeff"/><use xlink:href="#s" transform="matrix(1,0,0,1,1661.0183999996189,165.00000000000003) translate(44.814814814814824 31.27777777777778)"/><path d="M1656.02 278.5a6 6 0 0 1 6-6h148a6 6 0 0 1 6 6v51.33a6 6 0 0 1-6 6h-148a6 6 0 0 1-6-6z" stroke="#3a414a" fill="#dedeff"/><use xlink:href="#t" transform="matrix(1,0,0,1,1661.0183999996189,277.49999999999994) translate(25.06172839506172 31.27777777777778)"/><path d="M744 240.83h386.4" stroke="#3a414a" stroke-width="7" fill="none"/><path d="M744.1 244.33h-3.6v-7h3.6z" stroke="#3a414a" stroke-width=".05" fill="#3a414a"/><path d="M1148.17 240.83l-14.26 4.64v-9.27z" stroke="#3a414a" stroke-width="7" fill="#3a414a"/><path d="M1324 240.83h42.43" stroke="#3a414a" stroke-width="7" fill="none"/><path d="M1324.1 244.33h-3.6v-7h3.6z" stroke="#3a414a" stroke-width=".05" fill="#3a414a"/><path d="M1384.2 240.83l-14.27 4.64v-9.27z" stroke="#3a414a" stroke-width="7" fill="#3a414a"/><path d="M1560.02 240.83h40a6 6 0 0 0 6-6v-37.16a6 6 0 0 1 6-6h14.4" stroke="#3a414a" stroke-width="7" fill="none"/><path d="M1560.1 244.33h-3.58v-7h3.6z" stroke="#3a414a" stroke-width=".05" fill="#3a414a"/><path d="M1644.2 191.67l-14.27 4.63v-9.27z" stroke="#3a414a" stroke-width="7" fill="#3a414a"/><path d="M1560.02 240.83h40a6 6 0 0 1 6 6v51.34a6 6 0 0 0 6 6h14.4" stroke="#3a414a" stroke-width="7" fill="none"/><path d="M1560.1 244.33h-3.58v-7h3.6z" stroke="#3a414a" stroke-width=".05" fill="#3a414a"/><path d="M1644.2 304.17l-14.27 4.63v-9.27z" stroke="#3a414a" stroke-width="7" fill="#3a414a"/><path d="M1820.02 191.67h30.5a6 6 0 0 1 6 6V404a6 6 0 0 1-6 6H569.6" stroke="#3a414a" stroke-width="7" fill="none"/><path d="M1820.1 195.17h-3.58v-7h3.6z" stroke="#3a414a" stroke-width=".05" fill="#3a414a"/><path d="M551.83 410l14.26-4.63v9.26z" stroke="#3a414a" stroke-width="7" fill="#3a414a"/><path d="M1820.02 304.17h30.5a6 6 0 0 1 6 6V404a6 6 0 0 1-6 6H569.6" stroke="#3a414a" stroke-width="7" fill="none"/><path d="M1820.1 307.67h-3.58v-7h3.6z" stroke="#3a414a" stroke-width=".05" fill="#3a414a"/><path d="M551.83 410l14.26-4.63v9.26z" stroke="#3a414a" stroke-width="7" fill="#3a414a"/><path d="M200 259.83a6 6 0 0 1 6-6h228a6 6 0 0 1 6 6v51.34a6 6 0 0 1-6 6H206a6 6 0 0 1-6-6z" stroke="#000" stroke-opacity="0" fill="#fff" fill-opacity="0"/><use xlink:href="#g" transform="matrix(1,0,0,1,205,258.8333333333333) translate(7.222222222222221 21.15277777777778)"/><use xlink:href="#u" transform="matrix(1,0,0,1,205,258.8333333333333) translate(22.22222222222222 21.15277777777778)"/><use xlink:href="#g" transform="matrix(1,0,0,1,205,258.8333333333333) translate(7.222222222222221 47.81944444444444)"/><use xlink:href="#v" transform="matrix(1,0,0,1,205,258.8333333333333) translate(22.22222222222222 47.81944444444444)"/><path d="M1460 286.17a6 6 0 0 1 6-6h28a6 6 0 0 1 6 6v28a6 6 0 0 1-6 6h-28a6 6 0 0 1-6-6z" fill="none"/><path d="M1464 284.17l32 32m0-32l-32 32" stroke="#008573" stroke-width="8" fill="none"/><path d="M593.67 286.17a6 6 0 0 1 6-6h28a6 6 0 0 1 6 6v28a6 6 0 0 1-6 6h-28a6 6 0 0 1-6-6z" fill="none"/><path d="M597.67 284.17l32 32m0-32l-32 32" stroke="#008573" stroke-width="8" fill="none"/><path d="M375 340.42a6 6 0 0 1 6-6h28a6 6 0 0 1 6 6v28a6 6 0 0 1-6 6h-28a6 6 0 0 1-6-6z" fill="none"/><path d="M379 338.42l32 32m0-32l-32 32" stroke="#008573" stroke-width="8" fill="none"/><path d="M546.67 313a6 6 0 0 1 6-6h168a6 6 0 0 1 6 6v48a6 6 0 0 1-6 6h-168a6 6 0 0 1-6-6z" stroke="#000" stroke-opacity="0" fill="#fff" fill-opacity="0"/><g><use xlink:href="#w" transform="matrix(1,0,0,1,551.6666666666666,312) translate(22.746913580246904 30.27777777777778)"/></g><path d="M1396.02 316.83a6 6 0 0 1 6-6h168a6 6 0 0 1 6 6v48a6 6 0 0 1-6 6h-168a6 6 0 0 1-6-6z" stroke="#000" stroke-opacity="0" fill="#fff" fill-opacity="0"/><g><use xlink:href="#x" transform="matrix(1,0,0,1,1401.0183999996189,315.8333333333333) translate(32.0679012345679 30.27777777777778)"/></g><path d="M215 331.42a6 6 0 0 1 6-6h168a6 6 0 0 1 6 6v48a6 6 0 0 1-6 6H221a6 6 0 0 1-6-6z" stroke="#000" stroke-opacity="0" fill="#fff" fill-opacity="0"/><g><use xlink:href="#y" transform="matrix(1,0,0,1,220,330.41666666666663) translate(19.660493827160494 30.27777777777778)"/></g></g><defs><path fill="#3a414a" d="M55-144c13 50 104 24 104 88C159 21 15 23 1-39l26-10c6 40 102 42 102-4-13-50-104-23-104-87 0-71 143-71 148-8l-29 4c-5-35-85-37-89 0" id="z"/><path fill="#3a414a" d="M67 3c-93-2-31-127-26-193h32L48-50c-3 39 53 32 70 12 30-34 30-101 43-152h32L157 0h-30c1-10 6-24 4-33-14 20-29 37-64 36" id="A"/><path fill="#3a414a" d="M248-111c6-24 9-61-24-58-72 9-57 108-77 169h-31l26-142c3-37-50-30-64-10C52-115 50-51 37 0H6l36-190h30c-1 10-6 24-4 32 13-43 101-52 105 5 13-22 29-41 61-41 90 0 28 129 23 194h-31" id="B"/><path fill="#3a414a" d="M111-194c62-3 86 47 72 106H45c-7 38 6 69 45 68 27-1 43-14 53-32l24 11C152-15 129 4 87 4 38 3 12-23 12-71c0-70 32-119 99-123zm44 81c14-66-71-72-95-28-4 8-8 17-11 28h106" id="C"/><path fill="#3a414a" d="M66-151c12-25 30-51 66-40l-6 26C45-176 58-65 38 0H6l36-190h30" id="D"/><g id="a"><use transform="matrix(0.06172839506172839,0,0,0.06172839506172839,0,0)" xlink:href="#z"/><use transform="matrix(0.06172839506172839,0,0,0.06172839506172839,11.11111111111111,0)" xlink:href="#A"/><use transform="matrix(0.06172839506172839,0,0,0.06172839506172839,23.45679012345679,0)" xlink:href="#B"/><use transform="matrix(0.06172839506172839,0,0,0.06172839506172839,41.91358024691358,0)" xlink:href="#B"/><use transform="matrix(0.06172839506172839,0,0,0.06172839506172839,60.37037037037037,0)" xlink:href="#C"/><use transform="matrix(0.06172839506172839,0,0,0.06172839506172839,72.71604938271605,0)" xlink:href="#D"/></g><path fill="#3a414a" d="M100-194c62-1 85 37 85 99 1 63-27 99-86 99S16-35 15-95c0-66 28-99 85-99zM99-20c44 1 53-31 53-75 0-43-8-75-51-75s-53 32-53 75 10 74 51 75" id="E"/><path fill="#3a414a" d="M59-47c-2 24 18 29 38 22v24C64 9 27 4 27-40v-127H5v-23h24l9-43h21v43h35v23H59v120" id="F"/><path fill="#3a414a" d="M106-169C34-169 62-67 57 0H25v-261h32l-1 103c12-21 28-36 61-36 89 0 53 116 60 194h-32v-121c2-32-8-49-39-48" id="G"/><path fill="#3a414a" d="M100-194c63 0 86 42 84 106H49c0 40 14 67 53 68 26 1 43-12 49-29l28 8c-11 28-37 45-77 45C44 4 14-33 15-96c1-61 26-98 85-98zm52 81c6-60-76-77-97-28-3 7-6 17-6 28h103" id="H"/><path fill="#3a414a" d="M114-163C36-179 61-72 57 0H25l-1-190h30c1 12-1 29 2 39 6-27 23-49 58-41v29" id="I"/><g id="b"><use transform="matrix(0.06172839506172839,0,0,0.06172839506172839,0,0)" xlink:href="#E"/><use transform="matrix(0.06172839506172839,0,0,0.06172839506172839,12.345679012345679,0)" xlink:href="#F"/><use transform="matrix(0.06172839506172839,0,0,0.06172839506172839,18.51851851851852,0)" xlink:href="#G"/><use transform="matrix(0.06172839506172839,0,0,0.06172839506172839,30.864197530864196,0)" xlink:href="#H"/><use transform="matrix(0.06172839506172839,0,0,0.06172839506172839,43.20987654320987,0)" xlink:href="#I"/></g><path fill="#3a414a" d="M85-194c31 0 48 13 60 33l-1-100h32l1 261h-30c-2-10 0-23-3-31C134-8 116 4 85 4 32 4 16-35 15-94c0-66 23-100 70-100zm9 24c-40 0-46 34-46 75 0 40 6 74 45 74 42 0 51-32 51-76 0-42-9-74-50-73" id="J"/><path fill="#3a414a" d="M141-36C126-15 110 5 73 4 37 3 15-17 15-53c-1-64 63-63 125-63 3-35-9-54-41-54-24 1-41 7-42 31l-33-3c5-37 33-52 76-52 45 0 72 20 72 64v82c-1 20 7 32 28 27v20c-31 9-61-2-59-35zM48-53c0 20 12 33 32 33 41-3 63-29 60-74-43 2-92-5-92 41" id="K"/><g id="c"><use transform="matrix(0.06172839506172839,0,0,0.06172839506172839,0,0)" xlink:href="#J"/><use transform="matrix(0.06172839506172839,0,0,0.06172839506172839,12.345679012345679,0)" xlink:href="#K"/><use transform="matrix(0.06172839506172839,0,0,0.06172839506172839,24.691358024691358,0)" xlink:href="#F"/><use transform="matrix(0.06172839506172839,0,0,0.06172839506172839,30.864197530864196,0)" xlink:href="#K"/></g><path fill="#3a414a" d="M135-143c-3-34-86-38-87 0 15 53 115 12 119 90S17 21 10-45l28-5c4 36 97 45 98 0-10-56-113-15-118-90-4-57 82-63 122-42 12 7 21 19 24 35" id="L"/><path fill="#3a414a" d="M96-169c-40 0-48 33-48 73s9 75 48 75c24 0 41-14 43-38l32 2c-6 37-31 61-74 61-59 0-76-41-82-99-10-93 101-131 147-64 4 7 5 14 7 22l-32 3c-4-21-16-35-41-35" id="M"/><path fill="#3a414a" d="M24-231v-30h32v30H24zM24 0v-190h32V0H24" id="N"/><path fill="#3a414a" d="M117-194c89-4 53 116 60 194h-32v-121c0-31-8-49-39-48C34-167 62-67 57 0H25l-1-190h30c1 10-1 24 2 32 11-22 29-35 61-36" id="O"/><g id="d"><use transform="matrix(0.06172839506172839,0,0,0.06172839506172839,0,0)" xlink:href="#L"/><use transform="matrix(0.06172839506172839,0,0,0.06172839506172839,11.11111111111111,0)" xlink:href="#M"/><use transform="matrix(0.06172839506172839,0,0,0.06172839506172839,22.22222222222222,0)" xlink:href="#N"/><use transform="matrix(0.06172839506172839,0,0,0.06172839506172839,27.098765432098766,0)" xlink:href="#H"/><use transform="matrix(0.06172839506172839,0,0,0.06172839506172839,39.44444444444444,0)" xlink:href="#O"/><use transform="matrix(0.06172839506172839,0,0,0.06172839506172839,51.79012345679012,0)" xlink:href="#M"/><use transform="matrix(0.06172839506172839,0,0,0.06172839506172839,62.90123456790123,0)" xlink:href="#H"/></g><path fill="#3a414a" d="M24 0v-261h32V0H24" id="P"/><path fill="#3a414a" d="M115-194c53 0 69 39 70 98 0 66-23 100-70 100C84 3 66-7 56-30L54 0H23l1-261h32v101c10-23 28-34 59-34zm-8 174c40 0 45-34 45-75 0-40-5-75-45-74-42 0-51 32-51 76 0 43 10 73 51 73" id="Q"/><path fill="#3a414a" d="M68-38c1 34 0 65-14 84H32c9-13 17-26 17-46H33v-38h35" id="R"/><g id="e"><use transform="matrix(0.06172839506172839,0,0,0.06172839506172839,0,0)" xlink:href="#P"/><use transform="matrix(0.06172839506172839,0,0,0.06172839506172839,4.876543209876543,0)" xlink:href="#N"/><use transform="matrix(0.06172839506172839,0,0,0.06172839506172839,9.753086419753085,0)" xlink:href="#Q"/><use transform="matrix(0.06172839506172839,0,0,0.06172839506172839,22.098765432098766,0)" xlink:href="#I"/><use transform="matrix(0.06172839506172839,0,0,0.06172839506172839,29.444444444444443,0)" xlink:href="#K"/><use transform="matrix(0.06172839506172839,0,0,0.06172839506172839,41.79012345679012,0)" xlink:href="#I"/><use transform="matrix(0.06172839506172839,0,0,0.06172839506172839,49.1358024691358,0)" xlink:href="#N"/><use transform="matrix(0.06172839506172839,0,0,0.06172839506172839,54.01234567901234,0)" xlink:href="#H"/><use transform="matrix(0.06172839506172839,0,0,0.06172839506172839,66.35802469135803,0)" xlink:href="#L"/><use transform="matrix(0.06172839506172839,0,0,0.06172839506172839,77.46913580246914,0)" xlink:href="#R"/></g><path fill="#3a414a" d="M33 0v-38h34V0H33" id="S"/><path fill="#3a414a" d="M177-190C167-65 218 103 67 71c-23-6-38-20-44-43l32-5c15 47 100 32 89-28v-30C133-14 115 1 83 1 29 1 15-40 15-95c0-56 16-97 71-98 29-1 48 16 59 35 1-10 0-23 2-32h30zM94-22c36 0 50-32 50-73 0-42-14-75-50-75-39 0-46 34-46 75s6 73 46 73" id="T"/><path fill="#3a414a" d="M33-154v-36h34v36H33zM33 0v-36h34V0H33" id="U"/><g id="f"><use transform="matrix(0.06172839506172839,0,0,0.06172839506172839,0,0)" xlink:href="#H"/><use transform="matrix(0.06172839506172839,0,0,0.06172839506172839,12.345679012345679,0)" xlink:href="#S"/><use transform="matrix(0.06172839506172839,0,0,0.06172839506172839,18.51851851851852,0)" xlink:href="#T"/><use transform="matrix(0.06172839506172839,0,0,0.06172839506172839,30.864197530864196,0)" xlink:href="#S"/><use transform="matrix(0.06172839506172839,0,0,0.06172839506172839,37.03703703703704,0)" xlink:href="#U"/></g><path fill="#3a414a" d="M65-168c29 0 50 18 50 48S94-70 65-70c-30 0-48-21-48-50s19-48 48-48" id="V"/><use transform="matrix(0.06172839506172839,0,0,0.06172839506172839,0,0)" xlink:href="#V" id="g"/><path fill="#3a414a" d="M67-162c32-53 139-36 121 50C175-51 163 2 97 4 68 4 52-11 42-31 38 6 28 39 22 75H-9l50-265h29c-1 10 0 20-3 28zm89 36c0-26-10-43-35-43-54 0-67 50-69 103-1 29 14 45 42 46 53 0 62-58 62-106" id="W"/><path fill="#3a414a" d="M165-48c-4 18 1 34 23 27l-3 20c-29 8-62 0-52-35h-2C116-14 99 4 63 4 30 4 8-16 8-49c0-68 71-67 138-67 10-26 0-56-31-54-26 1-42 9-47 31l-32-5c8-67 160-71 144 15-5 28-9 54-15 81zM42-50c3 52 80 24 89-6 7-12 7-24 11-38-47 1-103-4-100 44" id="X"/><path fill="#3a414a" d="M67-158c22-48 132-52 116 29L158 0h-32l25-140c3-38-53-32-70-12C52-117 51-52 38 0H6l36-190h30" id="Y"/><path fill="#3a414a" d="M133-28C103 26-5 8 13-77c13-62 24-115 90-117 29-1 46 15 56 35l19-102h32L160 0h-30zM45-64c-2 27 10 43 35 43 54-1 69-50 69-103 0-29-15-46-42-46-53-1-58 58-62 106" id="Z"/><g id="h"><use transform="matrix(0.06172839506172839,0,0,0.06172839506172839,0,0)" xlink:href="#W"/><use transform="matrix(0.06172839506172839,0,0,0.06172839506172839,12.345679012345679,0)" xlink:href="#X"/><use transform="matrix(0.06172839506172839,0,0,0.06172839506172839,24.691358024691358,0)" xlink:href="#Y"/><use transform="matrix(0.06172839506172839,0,0,0.06172839506172839,37.03703703703704,0)" xlink:href="#Z"/><use transform="matrix(0.06172839506172839,0,0,0.06172839506172839,49.382716049382715,0)" xlink:href="#X"/><use transform="matrix(0.06172839506172839,0,0,0.06172839506172839,61.72839506172839,0)" xlink:href="#z"/></g><path fill="#3a414a" d="M198-190L69 30C53 58 25 83-20 72c4-11-1-27 19-22 33-1 43-29 59-52L20-190h32L79-34l84-156h35" id="aa"/><g id="i"><use transform="matrix(0.06172839506172839,0,0,0.06172839506172839,0,0)" xlink:href="#Y"/><use transform="matrix(0.06172839506172839,0,0,0.06172839506172839,12.345679012345679,0)" xlink:href="#A"/><use transform="matrix(0.06172839506172839,0,0,0.06172839506172839,24.691358024691358,0)" xlink:href="#B"/><use transform="matrix(0.06172839506172839,0,0,0.06172839506172839,43.148148148148145,0)" xlink:href="#W"/><use transform="matrix(0.06172839506172839,0,0,0.06172839506172839,55.49382716049382,0)" xlink:href="#aa"/></g><path fill="#3a414a" d="M240 0l2-218c-23 76-54 145-80 218h-23L58-218 59 0H30v-248h44l77 211c21-75 51-140 76-211h43V0h-30" id="ab"/><g id="j"><use transform="matrix(0.11111111111111108,0,0,0.11111111111111108,0,0)" xlink:href="#ab"/><use transform="matrix(0.11111111111111108,0,0,0.11111111111111108,33.222222222222214,0)" xlink:href="#E"/><use transform="matrix(0.11111111111111108,0,0,0.11111111111111108,55.44444444444443,0)" xlink:href="#J"/><use transform="matrix(0.11111111111111108,0,0,0.11111111111111108,77.66666666666664,0)" xlink:href="#H"/><use transform="matrix(0.11111111111111108,0,0,0.11111111111111108,99.88888888888886,0)" xlink:href="#P"/><use transform="matrix(0.11111111111111108,0,0,0.11111111111111108,108.66666666666663,0)" xlink:href="#P"/><use transform="matrix(0.11111111111111108,0,0,0.11111111111111108,117.44444444444441,0)" xlink:href="#N"/><use transform="matrix(0.11111111111111108,0,0,0.11111111111111108,126.22222222222219,0)" xlink:href="#O"/><use transform="matrix(0.11111111111111108,0,0,0.11111111111111108,148.4444444444444,0)" xlink:href="#T"/></g><path fill="#3a414a" d="M233-177c-1 41-23 64-60 70L243 0h-38l-65-103H63V0H30v-248c88 3 205-21 203 71zM63-129c60-2 137 13 137-47 0-61-80-42-137-45v92" id="ac"/><path fill="#3a414a" d="M115-194c55 1 70 41 70 98S169 2 115 4C84 4 66-9 55-30l1 105H24l-1-265h31l2 30c10-21 28-34 59-34zm-8 174c40 0 45-34 45-75s-6-73-45-74c-42 0-51 32-51 76 0 43 10 73 51 73" id="ad"/><g id="k"><use transform="matrix(0.11111111111111108,0,0,0.11111111111111108,0,0)" xlink:href="#ac"/><use transform="matrix(0.11111111111111108,0,0,0.11111111111111108,28.777777777777768,0)" xlink:href="#H"/><use transform="matrix(0.11111111111111108,0,0,0.11111111111111108,50.999999999999986,0)" xlink:href="#ad"/><use transform="matrix(0.11111111111111108,0,0,0.11111111111111108,73.2222222222222,0)" xlink:href="#I"/><use transform="matrix(0.11111111111111108,0,0,0.11111111111111108,86.44444444444441,0)" xlink:href="#H"/><use transform="matrix(0.11111111111111108,0,0,0.11111111111111108,108.66666666666663,0)" xlink:href="#L"/><use transform="matrix(0.11111111111111108,0,0,0.11111111111111108,128.66666666666663,0)" xlink:href="#H"/><use transform="matrix(0.11111111111111108,0,0,0.11111111111111108,150.88888888888886,0)" xlink:href="#O"/><use transform="matrix(0.11111111111111108,0,0,0.11111111111111108,173.1111111111111,0)" xlink:href="#F"/><use transform="matrix(0.11111111111111108,0,0,0.11111111111111108,184.2222222222222,0)" xlink:href="#K"/><use transform="matrix(0.11111111111111108,0,0,0.11111111111111108,206.4444444444444,0)" xlink:href="#F"/><use transform="matrix(0.11111111111111108,0,0,0.11111111111111108,217.55555555555551,0)" xlink:href="#N"/><use transform="matrix(0.11111111111111108,0,0,0.11111111111111108,226.3333333333333,0)" xlink:href="#E"/><use transform="matrix(0.11111111111111108,0,0,0.11111111111111108,248.5555555555555,0)" xlink:href="#O"/></g><path fill="#3a414a" d="M212-179c-10-28-35-45-73-45-59 0-87 40-87 99 0 60 29 101 89 101 43 0 62-24 78-52l27 14C228-24 195 4 139 4 59 4 22-46 18-125c-6-104 99-153 187-111 19 9 31 26 39 46" id="ae"/><path fill="#3a414a" d="M210-169c-67 3-38 105-44 169h-31v-121c0-29-5-50-35-48C34-165 62-65 56 0H25l-1-190h30c1 10-1 24 2 32 10-44 99-50 107 0 11-21 27-35 58-36 85-2 47 119 55 194h-31v-121c0-29-5-49-35-48" id="af"/><path fill="#3a414a" d="M84 4C-5 8 30-112 23-190h32v120c0 31 7 50 39 49 72-2 45-101 50-169h31l1 190h-30c-1-10 1-25-2-33-11 22-28 36-60 37" id="ag"/><g id="l"><use transform="matrix(0.11111111111111108,0,0,0.11111111111111108,0,0)" xlink:href="#ae"/><use transform="matrix(0.11111111111111108,0,0,0.11111111111111108,28.777777777777768,0)" xlink:href="#E"/><use transform="matrix(0.11111111111111108,0,0,0.11111111111111108,50.999999999999986,0)" xlink:href="#af"/><use transform="matrix(0.11111111111111108,0,0,0.11111111111111108,84.2222222222222,0)" xlink:href="#ad"/><use transform="matrix(0.11111111111111108,0,0,0.11111111111111108,106.44444444444441,0)" xlink:href="#ag"/><use transform="matrix(0.11111111111111108,0,0,0.11111111111111108,128.66666666666663,0)" xlink:href="#F"/><use transform="matrix(0.11111111111111108,0,0,0.11111111111111108,139.77777777777774,0)" xlink:href="#K"/><use transform="matrix(0.11111111111111108,0,0,0.11111111111111108,161.99999999999994,0)" xlink:href="#F"/><use transform="matrix(0.11111111111111108,0,0,0.11111111111111108,173.11111111111106,0)" xlink:href="#N"/><use transform="matrix(0.11111111111111108,0,0,0.11111111111111108,181.88888888888883,0)" xlink:href="#E"/><use transform="matrix(0.11111111111111108,0,0,0.11111111111111108,204.11111111111103,0)" xlink:href="#O"/></g><path fill="#3a414a" d="M44-68c0 29 11 47 38 47 30 0 42-19 51-41l28 9C148-21 126 4 82 4 31 4 10-29 12-85c3-77 74-140 146-93 12 8 15 23 18 40l-31 5c-1-22-13-36-36-36-52 0-65 49-65 101" id="ah"/><path fill="#3a414a" d="M30-147c31-64 166-65 159 27C183-49 158 1 86 4 9 8 1-88 30-147zM88-20c53 0 68-48 68-100 0-31-11-51-44-50-52 1-68 46-68 97 0 32 13 53 44 53" id="ai"/><path fill="#3a414a" d="M51-54c-9 22 5 41 31 30L79-1C43 14 10-4 19-52l22-115H19l5-23h22l19-43h21l-9 43h35l-4 23H73" id="aj"/><path fill="#3a414a" d="M103-194c29 0 47 14 56 36 2-11 5-23 8-32h30L160-5C157 61 82 97 21 62 9 55 4 45 1 30l28-7c7 42 83 31 92-3 4-16 9-38 13-55-13 20-29 36-62 36-40 0-60-25-60-64 0-71 23-131 91-131zm4 24c-53 0-58 54-61 104-2 27 10 44 36 44 49 0 65-50 67-102 1-29-15-46-42-46" id="ak"/><path fill="#3a414a" d="M67-158c15-20 31-36 64-36 94 0 33 127 27 194h-32l25-140c3-38-53-32-70-12C52-117 51-51 37 0H6l51-261h31" id="al"/><g id="m"><use transform="matrix(0.06172839506172839,0,0,0.06172839506172839,0,0)" xlink:href="#ah"/><use transform="matrix(0.06172839506172839,0,0,0.06172839506172839,11.11111111111111,0)" xlink:href="#ai"/><use transform="matrix(0.06172839506172839,0,0,0.06172839506172839,23.45679012345679,0)" xlink:href="#B"/><use transform="matrix(0.06172839506172839,0,0,0.06172839506172839,41.91358024691358,0)" xlink:href="#W"/><use transform="matrix(0.06172839506172839,0,0,0.06172839506172839,54.25925925925926,0)" xlink:href="#A"/><use transform="matrix(0.06172839506172839,0,0,0.06172839506172839,66.60493827160494,0)" xlink:href="#aj"/><use transform="matrix(0.06172839506172839,0,0,0.06172839506172839,72.77777777777777,0)" xlink:href="#C"/><use transform="matrix(0.06172839506172839,0,0,0.06172839506172839,85.12345679012346,0)" xlink:href="#ak"/><use transform="matrix(0.06172839506172839,0,0,0.06172839506172839,97.46913580246914,0)" xlink:href="#D"/><use transform="matrix(0.06172839506172839,0,0,0.06172839506172839,104.81481481481482,0)" xlink:href="#X"/><use transform="matrix(0.06172839506172839,0,0,0.06172839506172839,117.16049382716051,0)" xlink:href="#W"/><use transform="matrix(0.06172839506172839,0,0,0.06172839506172839,129.50617283950618,0)" xlink:href="#al"/></g><path fill="#3a414a" d="M188 0h-37l-8-164L71 0H34L18-190h31l8 164 75-164h34l8 164 74-164h31" id="am"/><path fill="#3a414a" d="M127 0L80-88 50-66 37 0H6l51-261h31L57-100l99-90h39l-93 82L161 0h-34" id="an"/><path fill="#3a414a" d="M124 0L87-78 21 0h-35l86-98-46-92h33l34 74 61-74h37l-83 92 50 98h-34" id="ao"/><g id="n"><use transform="matrix(0.06172839506172839,0,0,0.06172839506172839,0,0)" xlink:href="#Y"/><use transform="matrix(0.06172839506172839,0,0,0.06172839506172839,12.345679012345679,0)" xlink:href="#C"/><use transform="matrix(0.06172839506172839,0,0,0.06172839506172839,24.691358024691358,0)" xlink:href="#aj"/><use transform="matrix(0.06172839506172839,0,0,0.06172839506172839,30.864197530864196,0)" xlink:href="#am"/><use transform="matrix(0.06172839506172839,0,0,0.06172839506172839,46.85185185185185,0)" xlink:href="#ai"/><use transform="matrix(0.06172839506172839,0,0,0.06172839506172839,59.197530864197525,0)" xlink:href="#D"/><use transform="matrix(0.06172839506172839,0,0,0.06172839506172839,66.5432098765432,0)" xlink:href="#an"/><use transform="matrix(0.06172839506172839,0,0,0.06172839506172839,77.65432098765432,0)" xlink:href="#ao"/></g><path fill="#3a414a" d="M51-231l6-30h31l-6 30H51zM33 24C28 60 2 84-40 72c3-12-1-29 18-22C-5 49-1 37 2 19l41-209h32" id="ap"/><g id="o"><use transform="matrix(0.06172839506172839,0,0,0.06172839506172839,0,0)" xlink:href="#ap"/><use transform="matrix(0.06172839506172839,0,0,0.06172839506172839,4.876543209876543,0)" xlink:href="#X"/><use transform="matrix(0.06172839506172839,0,0,0.06172839506172839,17.22222222222222,0)" xlink:href="#ao"/></g><g id="p"><use transform="matrix(0.06172839506172839,0,0,0.06172839506172839,0,0)" xlink:href="#ab"/><use transform="matrix(0.06172839506172839,0,0,0.06172839506172839,18.456790123456788,0)" xlink:href="#E"/><use transform="matrix(0.06172839506172839,0,0,0.06172839506172839,30.80246913580247,0)" xlink:href="#J"/><use transform="matrix(0.06172839506172839,0,0,0.06172839506172839,43.148148148148145,0)" xlink:href="#H"/><use transform="matrix(0.06172839506172839,0,0,0.06172839506172839,55.49382716049382,0)" xlink:href="#P"/></g><g id="q"><use transform="matrix(0.06172839506172839,0,0,0.06172839506172839,0,0)" xlink:href="#I"/><use transform="matrix(0.06172839506172839,0,0,0.06172839506172839,7.345679012345679,0)" xlink:href="#ag"/><use transform="matrix(0.06172839506172839,0,0,0.06172839506172839,19.691358024691358,0)" xlink:href="#O"/><use transform="matrix(0.06172839506172839,0,0,0.06172839506172839,32.03703703703704,0)" xlink:href="#L"/></g><path fill="#3a414a" d="M50-231l6-30h32l-6 30H50zM6 0l37-190h31L37 0H6" id="aq"/><path fill="#3a414a" d="M89 0H52L20-190h33L74-25l89-165h34" id="ar"/><path fill="#3a414a" d="M6 0l50-261h32L37 0H6" id="as"/><g id="r"><use transform="matrix(0.06172839506172839,0,0,0.06172839506172839,0,0)" xlink:href="#C"/><use transform="matrix(0.06172839506172839,0,0,0.06172839506172839,12.345679012345679,0)" xlink:href="#z"/><use transform="matrix(0.06172839506172839,0,0,0.06172839506172839,23.45679012345679,0)" xlink:href="#aj"/><use transform="matrix(0.06172839506172839,0,0,0.06172839506172839,29.62962962962963,0)" xlink:href="#aq"/><use transform="matrix(0.06172839506172839,0,0,0.06172839506172839,34.50617283950617,0)" xlink:href="#ar"/><use transform="matrix(0.06172839506172839,0,0,0.06172839506172839,45.61728395061728,0)" xlink:href="#X"/><use transform="matrix(0.06172839506172839,0,0,0.06172839506172839,57.962962962962955,0)" xlink:href="#as"/></g><path fill="#3a414a" d="M238-179c0 84-86 86-175 82L45 0H11l48-248c82 0 179-12 179 69zm-34 1c0-53-64-42-116-43l-19 98c63 0 135 9 135-55" id="at"/><path fill="#3a414a" d="M222 0l43-216c-8 16-17 34-26 49L143 0h-22L81-216 41 0H11l48-248h42l38 208 116-208h45L252 0h-30" id="au"/><path fill="#3a414a" d="M125-24c46 0 70-25 89-51l25 16C214-24 183 4 123 4 8 4-5-146 60-208c32-50 158-61 191-5 5 7 9 14 11 22l-32 10c-9-28-33-43-69-43-74 0-108 51-108 125 0 46 24 75 72 75" id="av"/><g id="s"><use transform="matrix(0.06172839506172839,0,0,0.06172839506172839,0,0)" xlink:href="#at"/><use transform="matrix(0.06172839506172839,0,0,0.06172839506172839,14.814814814814813,0)" xlink:href="#aa"/><use transform="matrix(0.06172839506172839,0,0,0.06172839506172839,25.925925925925924,0)" xlink:href="#au"/><use transform="matrix(0.06172839506172839,0,0,0.06172839506172839,44.38271604938271,0)" xlink:href="#av"/></g><g id="t"><use transform="matrix(0.06172839506172839,0,0,0.06172839506172839,0,0)" xlink:href="#Y"/><use transform="matrix(0.06172839506172839,0,0,0.06172839506172839,12.345679012345679,0)" xlink:href="#C"/><use transform="matrix(0.06172839506172839,0,0,0.06172839506172839,24.691358024691358,0)" xlink:href="#ar"/><use transform="matrix(0.06172839506172839,0,0,0.06172839506172839,35.80246913580247,0)" xlink:href="#C"/><use transform="matrix(0.06172839506172839,0,0,0.06172839506172839,48.148148148148145,0)" xlink:href="#D"/><use transform="matrix(0.06172839506172839,0,0,0.06172839506172839,55.49382716049382,0)" xlink:href="#ak"/><use transform="matrix(0.06172839506172839,0,0,0.06172839506172839,67.8395061728395,0)" xlink:href="#D"/><use transform="matrix(0.06172839506172839,0,0,0.06172839506172839,75.18518518518519,0)" xlink:href="#X"/><use transform="matrix(0.06172839506172839,0,0,0.06172839506172839,87.53086419753087,0)" xlink:href="#Z"/></g><path fill="#3a414a" d="M119 0H84L31-248h34l41 218 126-218h36" id="aw"/><path fill="#3a414a" d="M-8 0l5-24 140-142H31l5-24h145l-5 24L36-24h119l-5 24H-8" id="ax"/><g id="u"><use transform="matrix(0.06172839506172839,0,0,0.06172839506172839,0,0)" xlink:href="#X"/><use transform="matrix(0.06172839506172839,0,0,0.06172839506172839,12.345679012345679,0)" xlink:href="#D"/><use transform="matrix(0.06172839506172839,0,0,0.06172839506172839,19.691358024691358,0)" xlink:href="#aw"/><use transform="matrix(0.06172839506172839,0,0,0.06172839506172839,34.074074074074076,0)" xlink:href="#aq"/><use transform="matrix(0.06172839506172839,0,0,0.06172839506172839,38.95061728395062,0)" xlink:href="#ax"/></g><g id="v"><use transform="matrix(0.06172839506172839,0,0,0.06172839506172839,0,0)" xlink:href="#W"/><use transform="matrix(0.06172839506172839,0,0,0.06172839506172839,12.345679012345679,0)" xlink:href="#as"/><use transform="matrix(0.06172839506172839,0,0,0.06172839506172839,17.22222222222222,0)" xlink:href="#ai"/><use transform="matrix(0.06172839506172839,0,0,0.06172839506172839,29.5679012345679,0)" xlink:href="#aj"/><use transform="matrix(0.06172839506172839,0,0,0.06172839506172839,35.74074074074074,0)" xlink:href="#as"/><use transform="matrix(0.06172839506172839,0,0,0.06172839506172839,40.617283950617285,0)" xlink:href="#aa"/></g><g id="w"><use transform="matrix(0.06172839506172839,0,0,0.06172839506172839,0,0)" xlink:href="#ae"/><use transform="matrix(0.06172839506172839,0,0,0.06172839506172839,15.987654320987653,0)" xlink:href="#E"/><use transform="matrix(0.06172839506172839,0,0,0.06172839506172839,28.333333333333332,0)" xlink:href="#O"/><use transform="matrix(0.06172839506172839,0,0,0.06172839506172839,40.67901234567901,0)" xlink:href="#L"/><use transform="matrix(0.06172839506172839,0,0,0.06172839506172839,51.79012345679013,0)" xlink:href="#F"/><use transform="matrix(0.06172839506172839,0,0,0.06172839506172839,57.96296296296297,0)" xlink:href="#I"/><use transform="matrix(0.06172839506172839,0,0,0.06172839506172839,65.30864197530865,0)" xlink:href="#ag"/><use transform="matrix(0.06172839506172839,0,0,0.06172839506172839,77.65432098765433,0)" xlink:href="#M"/><use transform="matrix(0.06172839506172839,0,0,0.06172839506172839,88.76543209876544,0)" xlink:href="#F"/><use transform="matrix(0.06172839506172839,0,0,0.06172839506172839,94.93827160493828,0)" xlink:href="#N"/><use transform="matrix(0.06172839506172839,0,0,0.06172839506172839,99.81481481481482,0)" xlink:href="#E"/><use transform="matrix(0.06172839506172839,0,0,0.06172839506172839,112.16049382716051,0)" xlink:href="#O"/></g><g id="x"><use transform="matrix(0.06172839506172839,0,0,0.06172839506172839,0,0)" xlink:href="#ae"/><use transform="matrix(0.06172839506172839,0,0,0.06172839506172839,15.987654320987653,0)" xlink:href="#K"/><use transform="matrix(0.06172839506172839,0,0,0.06172839506172839,28.333333333333332,0)" xlink:href="#P"/><use transform="matrix(0.06172839506172839,0,0,0.06172839506172839,33.20987654320987,0)" xlink:href="#N"/><use transform="matrix(0.06172839506172839,0,0,0.06172839506172839,38.08641975308642,0)" xlink:href="#Q"/><use transform="matrix(0.06172839506172839,0,0,0.06172839506172839,50.432098765432094,0)" xlink:href="#I"/><use transform="matrix(0.06172839506172839,0,0,0.06172839506172839,57.77777777777777,0)" xlink:href="#K"/><use transform="matrix(0.06172839506172839,0,0,0.06172839506172839,70.12345679012346,0)" xlink:href="#F"/><use transform="matrix(0.06172839506172839,0,0,0.06172839506172839,76.29629629629629,0)" xlink:href="#N"/><use transform="matrix(0.06172839506172839,0,0,0.06172839506172839,81.17283950617283,0)" xlink:href="#E"/><use transform="matrix(0.06172839506172839,0,0,0.06172839506172839,93.51851851851852,0)" xlink:href="#O"/></g><path fill="#3a414a" d="M33 0v-248h34V0H33" id="ay"/><g id="y"><use transform="matrix(0.06172839506172839,0,0,0.06172839506172839,0,0)" xlink:href="#ay"/><use transform="matrix(0.06172839506172839,0,0,0.06172839506172839,6.172839506172839,0)" xlink:href="#O"/><use transform="matrix(0.06172839506172839,0,0,0.06172839506172839,18.51851851851852,0)" xlink:href="#F"/><use transform="matrix(0.06172839506172839,0,0,0.06172839506172839,24.691358024691358,0)" xlink:href="#H"/><use transform="matrix(0.06172839506172839,0,0,0.06172839506172839,37.03703703703704,0)" xlink:href="#I"/><use transform="matrix(0.06172839506172839,0,0,0.06172839506172839,44.382716049382715,0)" xlink:href="#ad"/><use transform="matrix(0.06172839506172839,0,0,0.06172839506172839,56.72839506172839,0)" xlink:href="#I"/><use transform="matrix(0.06172839506172839,0,0,0.06172839506172839,64.07407407407408,0)" xlink:href="#H"/><use transform="matrix(0.06172839506172839,0,0,0.06172839506172839,76.41975308641976,0)" xlink:href="#F"/><use transform="matrix(0.06172839506172839,0,0,0.06172839506172839,82.5925925925926,0)" xlink:href="#K"/><use transform="matrix(0.06172839506172839,0,0,0.06172839506172839,94.93827160493828,0)" xlink:href="#F"/><use transform="matrix(0.06172839506172839,0,0,0.06172839506172839,101.11111111111111,0)" xlink:href="#N"/><use transform="matrix(0.06172839506172839,0,0,0.06172839506172839,105.98765432098766,0)" xlink:href="#E"/><use transform="matrix(0.06172839506172839,0,0,0.06172839506172839,118.33333333333334,0)" xlink:href="#O"/></g></defs></g></svg>